<?xml version="1.0" encoding="UTF-8"?>
<svg id="Layer_1" data-name="Layer 1" xmlns="http://www.w3.org/2000/svg" viewBox="0 0 1024 1024">
  <path d="M1024-112c29.92,0,58.04,11.65,79.2,32.8C1124.35-58.04,1136-29.92,1136,0s-11.65,58.04-32.8,79.2c-21.15,21.15-49.28,32.8-79.2,32.8s-58.04-11.65-79.2-32.8C923.65,58.04,912,29.92,912,0s11.65-58.04,32.8-79.2c21.15-21.15,49.28-32.8,79.2-32.8m0-16h0C953.31-128,896-70.69,896,0h0c0,70.69,57.31,128,128,128h0c70.69,0,128-57.31,128-128h0c0-70.69-57.31-128-128-128h0Z"/>
  <path d="M0,912c29.92,0,58.04,11.65,79.2,32.8,21.15,21.15,32.8,49.28,32.8,79.2s-11.65,58.04-32.8,79.2C58.04,1124.35,29.92,1136,0,1136s-58.04-11.65-79.2-32.8c-21.15-21.15-32.8-49.28-32.8-79.2s11.65-58.04,32.8-79.2C-58.04,923.65-29.92,912,0,912M0,896H0c-70.69,0-128,57.31-128,128h0C-128,1094.69-70.69,1152,0,1152H0c70.69,0,128-57.31,128-128h0C128,953.31,70.69,896,0,896H0Z"/>
  <path d="M1024,912c29.92,0,58.04,11.65,79.2,32.8,21.15,21.15,32.8,49.28,32.8,79.2s-11.65,58.04-32.8,79.2c-21.15,21.15-49.28,32.8-79.2,32.8s-58.04-11.65-79.2-32.8c-21.15-21.15-32.8-49.28-32.8-79.2s11.65-58.04,32.8-79.2c21.15-21.15,49.28-32.8,79.2-32.8m0-16h0c-70.69,0-128,57.31-128,128h0c0,70.69,57.31,128,128,128h0c70.69,0,128-57.31,128-128h0c0-70.69-57.31-128-128-128h0Z"/>
  <path d="M0-112c29.92,0,58.04,11.65,79.2,32.8C100.35-58.04,112-29.92,112,0s-11.65,58.04-32.8,79.2C58.04,100.35,29.92,112,0,112s-58.04-11.65-79.2-32.8C-100.35,58.04-112,29.92-112,0s11.65-58.04,32.8-79.2C-58.04-100.35-29.92-112,0-112M0-128H0C-70.69-128-128-70.69-128,0h0C-128,70.69-70.69,128,0,128H0C70.69,128,128,70.69,128,0h0C128-70.69,70.69-128,0-128H0Z"/>
  <path d="M67.88,428.12c4.27,0,8.29,1.66,11.31,4.69,6.24,6.24,6.24,16.39,0,22.63l-45.25,45.25-11.31,11.31,11.31,11.31,45.25,45.25c6.24,6.24,6.24,16.39,0,22.63-3.02,3.02-7.04,4.69-11.31,4.69s-8.29-1.66-11.31-4.69l-45.25-45.25-11.31-11.31-11.31,11.31-45.25,45.25c-3.02,3.02-7.04,4.69-11.31,4.69s-8.29-1.66-11.31-4.69c-6.24-6.24-6.24-16.39,0-22.63l45.25-45.25,11.31-11.31-11.31-11.31-45.25-45.25c-6.24-6.24-6.24-16.39,0-22.63,3.02-3.02,7.04-4.69,11.31-4.69s8.29,1.66,11.31,4.69l45.25,45.25,11.31,11.31,11.31-11.31,45.25-45.25c3.02-3.02,7.04-4.69,11.31-4.69m0-16c-8.19,0-16.38,3.12-22.63,9.37L0,466.75l-45.25-45.25c-6.25-6.25-14.44-9.37-22.63-9.37s-16.38,3.12-22.63,9.37h0c-12.5,12.5-12.5,32.76,0,45.25l45.25,45.25-45.25,45.25c-12.5,12.5-12.5,32.76,0,45.25h0c6.25,6.25,14.44,9.37,22.63,9.37s16.38-3.12,22.63-9.37L0,557.25l45.25,45.25c6.25,6.25,14.44,9.37,22.63,9.37s16.38-3.12,22.63-9.37h0c12.5-12.5,12.5-32.76,0-45.25l-45.25-45.25,45.25-45.25c12.5-12.5,12.5-32.76,0-45.25h0c-6.25-6.25-14.44-9.37-22.63-9.37h0Z"/>
  <path d="M512,400c29.92,0,58.04,11.65,79.2,32.8,21.15,21.15,32.8,49.28,32.8,79.2s-11.65,58.04-32.8,79.2c-21.15,21.15-49.28,32.8-79.2,32.8s-58.04-11.65-79.2-32.8c-21.15-21.15-32.8-49.28-32.8-79.2s11.65-58.04,32.8-79.2c21.15-21.15,49.28-32.8,79.2-32.8m0-16h0c-70.69,0-128,57.31-128,128h0c0,70.69,57.31,128,128,128h0c70.69,0,128-57.31,128-128h0c0-70.69-57.31-128-128-128h0Z"/>
  <path d="M580.1-84.1c4.27,0,8.29,1.66,11.31,4.69,6.24,6.24,6.24,16.39,0,22.63l-45.25,45.25L534.84-.22l11.31,11.31,45.25,45.25c6.24,6.24,6.24,16.39,0,22.63-3.02,3.02-7.04,4.69-11.31,4.69s-8.29-1.66-11.31-4.69l-45.25-45.25-11.31-11.31-11.31,11.31-45.25,45.25c-3.02,3.02-7.04,4.69-11.31,4.69s-8.29-1.66-11.31-4.69c-6.24-6.24-6.24-16.39,0-22.63l45.25-45.25L489.59-.22l-11.31-11.31-45.25-45.25c-3.02-3.02-4.69-7.04-4.69-11.31,0-4.27,1.66-8.29,4.69-11.31,3.02-3.02,7.04-4.69,11.31-4.69s8.29,1.66,11.31,4.69l45.25,45.25,11.31,11.31,11.31-11.31,45.25-45.25c3.02-3.02,7.04-4.69,11.31-4.69m0-16c-8.19,0-16.38,3.12-22.63,9.37l-45.25,45.25-45.25-45.25c-6.25-6.25-14.44-9.37-22.63-9.37s-16.38,3.12-22.63,9.37h0c-12.5,12.5-12.5,32.76,0,45.25L466.96-.22l-45.25,45.25c-12.5,12.5-12.5,32.76,0,45.25h0c6.25,6.25,14.44,9.37,22.63,9.37s16.38-3.12,22.63-9.37l45.25-45.25,45.25,45.25c6.25,6.25,14.44,9.37,22.63,9.37s16.38-3.12,22.63-9.37h0c12.5-12.5,12.5-32.76,0-45.25L557.47-.22l45.25-45.25c12.5-12.5,12.5-32.76,0-45.25h0c-6.25-6.25-14.44-9.37-22.63-9.37h0Z"/>
  <path d="M1092.1,427.9c4.27,0,8.29,1.66,11.31,4.69,6.24,6.24,6.24,16.39,0,22.63l-45.25,45.25-11.31,11.31,11.31,11.31,45.25,45.25c6.24,6.24,6.24,16.39,0,22.63-3.02,3.02-7.04,4.69-11.31,4.69s-8.29-1.66-11.31-4.69l-45.25-45.25-11.31-11.31-11.31,11.31-45.25,45.25c-3.02,3.02-7.04,4.69-11.31,4.69s-8.29-1.66-11.31-4.69c-6.24-6.24-6.24-16.39,0-22.63l45.25-45.25,11.31-11.31-11.31-11.31-45.25-45.25c-3.02-3.02-4.69-7.04-4.69-11.31,0-4.27,1.66-8.29,4.69-11.31,3.02-3.02,7.04-4.69,11.31-4.69s8.29,1.66,11.31,4.69l45.25,45.25,11.31,11.31,11.31-11.31,45.25-45.25c3.02-3.02,7.04-4.69,11.31-4.69m0-16c-8.19,0-16.38,3.12-22.63,9.37l-45.25,45.25-45.25-45.25c-6.25-6.25-14.44-9.37-22.63-9.37s-16.38,3.12-22.63,9.37h0c-12.5,12.5-12.5,32.76,0,45.25l45.25,45.25-45.25,45.25c-12.5,12.5-12.5,32.76,0,45.25h0c6.25,6.25,14.44,9.37,22.63,9.37s16.38-3.12,22.63-9.37l45.25-45.25,45.25,45.25c6.25,6.25,14.44,9.37,22.63,9.37s16.38-3.12,22.63-9.37h0c12.5-12.5,12.5-32.76,0-45.25l-45.25-45.25,45.25-45.25c12.5-12.5,12.5-32.76,0-45.25h0c-6.25-6.25-14.44-9.37-22.63-9.37h0Z"/>
  <path d="M580.1,939.9c4.27,0,8.29,1.66,11.31,4.69,6.24,6.24,6.24,16.39,0,22.63l-45.25,45.25-11.31,11.31,11.31,11.31,45.25,45.25c6.24,6.24,6.24,16.39,0,22.63-3.02,3.02-7.04,4.69-11.31,4.69s-8.29-1.66-11.31-4.69l-45.25-45.25-11.31-11.31-11.31,11.31-45.25,45.25c-3.02,3.02-7.04,4.69-11.31,4.69s-8.29-1.66-11.31-4.69c-6.24-6.24-6.24-16.39,0-22.63l45.25-45.25,11.31-11.31-11.31-11.31-45.25-45.25c-3.02-3.02-4.69-7.04-4.69-11.31,0-4.27,1.66-8.29,4.69-11.31,3.02-3.02,7.04-4.69,11.31-4.69s8.29,1.66,11.31,4.69l45.25,45.25,11.31,11.31,11.31-11.31,45.25-45.25c3.02-3.02,7.04-4.69,11.31-4.69m0-16c-8.19,0-16.38,3.12-22.63,9.37l-45.25,45.25-45.25-45.25c-6.25-6.25-14.44-9.37-22.63-9.37s-16.38,3.12-22.63,9.37h0c-12.5,12.5-12.5,32.76,0,45.25l45.25,45.25-45.25,45.25c-12.5,12.5-12.5,32.76,0,45.25h0c6.25,6.25,14.44,9.37,22.63,9.37s16.38-3.12,22.63-9.37l45.25-45.25,45.25,45.25c6.25,6.25,14.44,9.37,22.63,9.37s16.38-3.12,22.63-9.37h0c12.5-12.5,12.5-32.76,0-45.25l-45.25-45.25,45.25-45.25c12.5-12.5,12.5-32.76,0-45.25h0c-6.25-6.25-14.44-9.37-22.63-9.37h0Z"/>
</svg>