<?xml version="1.0" encoding="UTF-8"?>
<svg width="12pt" height="12pt" version="1.1" viewBox="0 0 12 12" xmlns="http://www.w3.org/2000/svg" xmlns:cc="http://creativecommons.org/ns#" xmlns:dc="http://purl.org/dc/elements/1.1/" xmlns:rdf="http://www.w3.org/1999/02/22-rdf-syntax-ns#">
<defs>
<clipPath id="a">
<path d="m0 0h80.398v80.398h-80.398z"/>
</clipPath>
</defs>
<g transform="matrix(.14925 0 0 .14925 .00026658 .15027)" stroke="#000" stroke-width="4.0201">
<g clip-path="url(#a)" fill="none" stroke="#000" stroke-width="40.201">
<path transform="matrix(.1 0 0 -.1 0 80.4)" d="m116.05 451.07c-31.406 31.406-49.063 74.023-49.063 118.44s17.656 87.031 49.063 118.44c31.406 31.406 74.023 49.062 118.44 49.062 92.5 0 167.5-75 167.5-167.5v-502.5"/>
<path transform="matrix(.1 0 0 -.1 0 80.4)" d="m401.99 569.51c0 92.5 75 167.5 167.5 167.5 44.414 0 87.031-17.656 118.44-49.062s49.062-74.023 49.062-118.44-17.656-87.031-49.062-118.44"/>
</g>
</g>
</svg>