<?xml version="1.0" encoding="utf-8"?>
<!-- Generator: Adobe Illustrator 27.0.0, SVG Export Plug-In . SVG Version: 6.00 Build 0)  -->
<svg version="1.1" id="Layer_1" xmlns="http://www.w3.org/2000/svg" xmlns:xlink="http://www.w3.org/1999/xlink" x="0px" y="0px"
	 viewBox="0 0 158.52 206" style="enable-background:new 0 0 158.52 206;" xml:space="preserve">
<style type="text/css">
	
		.st0{clip-path:url(#SVGID_00000093159812411195551040000008145638360145770891_);fill:url(#SVGID_00000165928482419346304750000017152123048159381670_);}
	
		.st1{clip-path:url(#SVGID_00000078007079227322268840000013364409456352038027_);fill:url(#SVGID_00000047054240937628153240000014693042217386572477_);}
	
		.st2{clip-path:url(#SVGID_00000036947988210768393960000006511137304949744543_);fill:url(#SVGID_00000070824391517543660890000010120746654360156295_);}
	
		.st3{clip-path:url(#SVGID_00000052791841719058730760000007505351062922136472_);fill:url(#SVGID_00000067923800967958415640000016922922467535117496_);}
	.st4{clip-path:url(#SVGID_00000103960368394606198420000002979013182211915411_);fill:#FDBC5F;}
	
		.st5{clip-path:url(#SVGID_00000177482659795896851630000001618783890866877834_);fill:url(#SVGID_00000147924431144754266030000003714765287118467210_);}
	.st6{clip-path:url(#SVGID_00000018202718519667711540000005157947783520243383_);fill:#FDBC5F;}
	.st7{clip-path:url(#SVGID_00000018202718519667711540000005157947783520243383_);}
</style>
<g>
	<defs>
		<path id="SVGID_1_" d="M30,31.41c0,18.31,1.07,117.51,4.29,152c4.3,3.24,44.01,4.31,44.01,4.31
			C14.97,89.63,46.1,42.19,62.21,20.63C51.26,23.56,40.51,27.16,30,31.41"/>
	</defs>
	<clipPath id="SVGID_00000150786705358638103120000009482078831081528485_">
		<use xlink:href="#SVGID_1_"  style="overflow:visible;"/>
	</clipPath>
	
		<linearGradient id="SVGID_00000152232572539716468860000010200698913164964502_" gradientUnits="userSpaceOnUse" x1="0" y1="506.0713" x2="1" y2="506.0713" gradientTransform="matrix(64.6863 -172.7719 -49.9511 -223.7386 25298.6875 113403.3203)">
		<stop  offset="0" style="stop-color:#A75726"/>
		<stop  offset="1.000000e-03" style="stop-color:#A75726"/>
		<stop  offset="0.281" style="stop-color:#C5702B"/>
		<stop  offset="0.521" style="stop-color:#D7802F"/>
		<stop  offset="0.692" style="stop-color:#DE8530"/>
		<stop  offset="0.764" style="stop-color:#DA832F"/>
		<stop  offset="0.839" style="stop-color:#CE7C2E"/>
		<stop  offset="0.914" style="stop-color:#B9702B"/>
		<stop  offset="0.989" style="stop-color:#9D5F26"/>
		<stop  offset="0.995" style="stop-color:#9A5E26"/>
		<stop  offset="1" style="stop-color:#9A5E26"/>
	</linearGradient>
	
		<polygon style="clip-path:url(#SVGID_00000150786705358638103120000009482078831081528485_);fill:url(#SVGID_00000152232572539716468860000010200698913164964502_);" points="
		-8.4,83.05 54.65,-85.34 101.68,125.31 38.63,293.7 	"/>
</g>
<g>
	<defs>
		<path id="SVGID_00000052088613598512583450000007550150292005461137_" d="M78.31,187.72L78.31,187.72
			C68.65,166.17,30,93.94,58.98,63.75c24.69-25.87,78.37-8.62,78.37-8.62s-3.22-16.16-5.37-22.64c-0.84-1.92-2.37-3.46-4.29-4.31
			c-21.93-4.38-44.2-6.9-66.56-7.55C62.2,20.63,3.16,71.3,78.31,187.72"/>
	</defs>
	<clipPath id="SVGID_00000154409816595575271560000013387794825068428981_">
		<use xlink:href="#SVGID_00000052088613598512583450000007550150292005461137_"  style="overflow:visible;"/>
	</clipPath>
	
		<linearGradient id="SVGID_00000096034729719435267030000018012903112737301401_" gradientUnits="userSpaceOnUse" x1="0" y1="505.9975" x2="1" y2="505.9975" gradientTransform="matrix(1568.1119 515.144 299.8515 -2694.0117 -150921.0469 1363508.125)">
		<stop  offset="0" style="stop-color:#A75726"/>
		<stop  offset="1.000000e-03" style="stop-color:#A75726"/>
		<stop  offset="0.281" style="stop-color:#C5702B"/>
		<stop  offset="0.521" style="stop-color:#D7802F"/>
		<stop  offset="0.692" style="stop-color:#DE8530"/>
		<stop  offset="0.764" style="stop-color:#DA832F"/>
		<stop  offset="0.839" style="stop-color:#CE7C2E"/>
		<stop  offset="0.914" style="stop-color:#B9702B"/>
		<stop  offset="0.989" style="stop-color:#9D5F26"/>
		<stop  offset="0.995" style="stop-color:#9A5E26"/>
		<stop  offset="1" style="stop-color:#9A5E26"/>
	</linearGradient>
	
		<polygon style="clip-path:url(#SVGID_00000154409816595575271560000013387794825068428981_);fill:url(#SVGID_00000096034729719435267030000018012903112737301401_);" points="
		7.89,-21.9 155.29,26.53 132.61,230.25 -14.78,181.83 	"/>
</g>
<g>
	<defs>
		<path id="SVGID_00000072998261340672772320000006003901282944358844_" d="M78.31,188.8C78.31,188.8,78.31,188.8,78.31,188.8
			C78.31,188.79,78.31,188.8,78.31,188.8 M52.54,73.44v1.08v0.01C35.42,110.02,78.1,187.35,78.31,188.79
			c-1.07-12.55-1.07-25.17,0-37.72c1.07-11.86,2.15-21.56,17.18-25.87c12.75-2.63,25.66-4.43,38.65-5.38
			c-1.07-1.08-7.51-4.31-42.94-3.24c-21.47,0-20.4-21.56-4.3-22.64c12.53-0.44,25.08-0.08,37.57,1.08c0,0-20.4-3.24-34.35-6.47
			c-8-0.3-14.25-7.03-13.94-15.04l0-0.08H52.54z"/>
	</defs>
	<clipPath id="SVGID_00000136376354550664389220000010498771662400047025_">
		<use xlink:href="#SVGID_00000072998261340672772320000006003901282944358844_"  style="overflow:visible;"/>
	</clipPath>
	
		<radialGradient id="SVGID_00000052063684566185499310000008345738698550252456_" cx="0" cy="506" r="1" gradientTransform="matrix(78.3613 0 0 -78.3613 105.3354 39782.293)" gradientUnits="userSpaceOnUse">
		<stop  offset="0" style="stop-color:#AB8052"/>
		<stop  offset="0.338" style="stop-color:#AB8052"/>
		<stop  offset="0.374" style="stop-color:#B18453"/>
		<stop  offset="0.651" style="stop-color:#DAA259"/>
		<stop  offset="0.869" style="stop-color:#F4B55E"/>
		<stop  offset="1" style="stop-color:#FDBC5F"/>
	</radialGradient>
	
		<rect x="35.42" y="73.44" style="clip-path:url(#SVGID_00000136376354550664389220000010498771662400047025_);fill:url(#SVGID_00000052063684566185499310000008345738698550252456_);" width="98.71" height="115.36"/>
</g>
<g>
	<defs>
		<path id="SVGID_00000026848283585495278770000001631027854306148774_" d="M58.98,63.75c-2.51,2.97-4.67,6.22-6.44,9.69l1.08,2.16
			h21.47l1.08-2.16c1.08-6.47,8.59-17.25,34.35-16.17l-0.01,0.01c25.76,2.16,25.76-2.16,25.76-2.16s-17.18-5.63-36.5-5.63
			C85.27,49.49,69.57,52.66,58.98,63.75"/>
	</defs>
	<clipPath id="SVGID_00000130615407426390552340000011918410299878311337_">
		<use xlink:href="#SVGID_00000026848283585495278770000001631027854306148774_"  style="overflow:visible;"/>
	</clipPath>
	
		<radialGradient id="SVGID_00000156553724128769543370000003313543331142722731_" cx="0" cy="506" r="1" gradientTransform="matrix(270.4735 0 0 -270.4735 1500.5242 136995.9219)" gradientUnits="userSpaceOnUse">
		<stop  offset="0" style="stop-color:#AB8052"/>
		<stop  offset="0.338" style="stop-color:#AB8052"/>
		<stop  offset="0.374" style="stop-color:#B18453"/>
		<stop  offset="0.651" style="stop-color:#DAA259"/>
		<stop  offset="0.869" style="stop-color:#F4B55E"/>
		<stop  offset="1" style="stop-color:#FDBC5F"/>
	</radialGradient>
	
		<rect x="52.54" y="49.49" style="clip-path:url(#SVGID_00000130615407426390552340000011918410299878311337_);fill:url(#SVGID_00000156553724128769543370000003313543331142722731_);" width="83.73" height="26.11"/>
</g>
<g>
	<defs>
		<rect id="SVGID_00000101810370876652100410000006928753343123966873_" y="-294" width="800" height="800"/>
	</defs>
	<clipPath id="SVGID_00000102538281703442591340000013107969687222900925_">
		<use xlink:href="#SVGID_00000101810370876652100410000006928753343123966873_"  style="overflow:visible;"/>
	</clipPath>
	<path style="clip-path:url(#SVGID_00000102538281703442591340000013107969687222900925_);fill:#FDBC5F;" d="M78.31,187.72
		c0,0-6.44-9.7-13.96-23.72c-4.78-8.21-8.73-16.88-11.81-25.87c-4.34-10.04-7.58-20.52-9.66-31.26c-1.31-5.66-2.03-11.44-2.15-17.25
		V73.44c0.76-9.61,2.93-19.05,6.44-28.02c2.69-6.03,5.92-11.8,9.66-17.25c1.4-2.14,3.23-3.97,5.38-5.38
		c-1.93,2.04-3.72,4.2-5.38,6.47c-4.11,5.6-7.37,11.78-9.66,18.34c-3.51,8.98-5.68,18.42-6.44,28.03v16.15
		c0.19,5.45,0.91,10.86,2.15,16.17c2.08,10.74,5.32,21.23,9.66,31.27c3.07,8.99,7.03,17.66,11.81,25.87
		c4.14,7.85,8.8,15.41,13.96,22.64V187.72z"/>
</g>
<g>
	<defs>
		<path id="SVGID_00000129201969105026769760000016910599061259324088_" d="M85.82,93.94c-16.1,1.08-17.17,22.64,4.29,22.64
			c35.42,0,41.87,3.24,42.94,3.24l-9.66-24.8c-9.14-0.83-18.32-1.24-27.5-1.24C92.54,93.77,89.18,93.83,85.82,93.94"/>
	</defs>
	<clipPath id="SVGID_00000074413847517192509380000007662598492524299407_">
		<use xlink:href="#SVGID_00000129201969105026769760000016910599061259324088_"  style="overflow:visible;"/>
	</clipPath>
	
		<radialGradient id="SVGID_00000062188994114474432290000014248162226537086103_" cx="0" cy="506" r="1" gradientTransform="matrix(27.263 0 0 -27.263 122.4464 13888.9814)" gradientUnits="userSpaceOnUse">
		<stop  offset="0" style="stop-color:#DE8530"/>
		<stop  offset="0.226" style="stop-color:#DA832F"/>
		<stop  offset="0.451" style="stop-color:#CE7C2D"/>
		<stop  offset="0.675" style="stop-color:#BA702A"/>
		<stop  offset="0.899" style="stop-color:#9E6026"/>
		<stop  offset="1" style="stop-color:#8F5723"/>
	</radialGradient>
	
		<rect x="68.65" y="93.77" style="clip-path:url(#SVGID_00000074413847517192509380000007662598492524299407_);fill:url(#SVGID_00000062188994114474432290000014248162226537086103_);" width="64.41" height="26.04"/>
</g>
<g>
	<defs>
		<rect id="SVGID_00000124883600053357318420000005992833959655586729_" y="-294" width="800" height="800"/>
	</defs>
	<clipPath id="SVGID_00000034079175415422835230000003664168169591371927_">
		<use xlink:href="#SVGID_00000124883600053357318420000005992833959655586729_"  style="overflow:visible;"/>
	</clipPath>
	<path style="clip-path:url(#SVGID_00000034079175415422835230000003664168169591371927_);fill:#FDBC5F;" d="M137.35,56.21
		c-8.04-2.37-16.32-3.82-24.69-4.31c-8.55-1.08-17.21-1.08-25.76,0c-9.73,0.75-18.87,4.96-25.76,11.86
		c-7.07,6.82-11.29,16.07-11.81,25.88c-0.8,8.27-0.43,16.62,1.07,24.79c1.62,8.04,3.77,15.96,6.44,23.72
		c-0.93-2.08-1.64-4.25-2.15-6.47c-1.81-5.65-3.25-11.41-4.29-17.25c-1.34-8.56-2.06-17.21-2.15-25.87
		c0.51-9.81,4.73-19.05,11.79-25.87c7.84-6.09,17.05-10.17,26.84-11.86c8.55-1.08,17.21-1.08,25.76,0
		c8.36,1.12,16.62,2.91,24.69,5.38L137.35,56.21z"/>
	<path style="clip-path:url(#SVGID_00000034079175415422835230000003664168169591371927_);fill:#FDBC5F;" d="M123.39,95.01
		c0,0-13.96-1.08-27.91-1.08h-9.66c-3.18-0.09-6.26,1.07-8.59,3.23c-2.46,1.66-3.72,4.62-3.22,7.55c-0.5-2.93,0.76-5.88,3.22-7.55
		c2.33-2.16,5.41-3.32,8.59-3.23h10.74C110.51,93.93,123.39,95,123.39,95.01L123.39,95.01z"/>
	<path style="clip-path:url(#SVGID_00000034079175415422835230000003664168169591371927_);" d="M207.82,60.67h23.35l-11.82-34.82
		L207.82,60.67z M233.17,66.55h-27.34L199,87.04h-7.72l22.95-66.41h10.32l23.65,66.41h-7.82L233.17,66.55L233.17,66.55z
		 M311.45,20.63v68.4h-6.7l-0.5-8.5c-5.3,6.3-13.17,9.86-21.4,9.67c-15.4,0-22-10.36-22-23.16V20.63h7.59v46.71
		c0,9.38,4,16.9,15.9,16.9c8.08,0.14,15.59-4.12,19.61-11.14V20.63H311.45"/>
	<polygon style="clip-path:url(#SVGID_00000034079175415422835230000003664168169591371927_);" points="371.54,26.51 351.39,26.51 
		351.39,87.04 344.16,87.04 344.16,26.51 324.1,26.51 324.1,20.63 371.54,20.63 	"/>
	<path style="clip-path:url(#SVGID_00000034079175415422835230000003664168169591371927_);" d="M388.44,48.11V63.2
		c0,11.82,5.73,21.14,19.47,21.14c13.74,0,19.47-9.32,19.47-21.14V48.11c0-12.4-5.73-21.62-19.47-21.62
		C394.36,26.49,388.44,35.53,388.44,48.11 M434.79,48.21v14.8c0,15.09-8.3,27.2-26.88,27.2c-18.58,0-26.88-12.11-26.88-27.2v-14.8
		c0-15.85,8.4-27.58,26.88-27.58C426.59,20.63,434.79,32.65,434.79,48.21 M493.82,47.01c0-12.71-6.99-20.59-20.87-20.59h-11.81
		v54.84h9.74c15.05,0,22.93-7.78,22.93-22.3L493.82,47.01z M501.2,47.2v11.58c0,17.36-10.62,28.27-30.31,28.27h-17.12V20.63h19.58
		C491.85,20.63,501.2,31.25,501.2,47.2"/>
	<polygon style="clip-path:url(#SVGID_00000034079175415422835230000003664168169591371927_);" points="527.06,26.42 527.06,49.95 
		552.94,49.95 552.94,55.83 527.06,55.83 527.06,81.25 554.96,81.25 554.96,87.04 520.17,87.04 520.17,20.63 554.96,20.63 
		554.96,26.42 	"/>
	<path style="clip-path:url(#SVGID_00000034079175415422835230000003664168169591371927_);" d="M567.61,70.51h7.27
		c0.5,7.4,5.14,13.74,18.74,13.74c13.6,0,17.04-6.44,17.04-11.43V70.6c0-6.83-4.23-9.32-14.82-12.58l-10.18-3.16
		c-10.89-3.46-15.32-7.79-15.32-15.95v-2.12c-0.01-7.21,6.44-16.14,23.57-16.14c16.02,0,23.78,8.26,24.29,18.93h-7.27
		c-0.5-6.54-4.53-13.07-17.03-13.07c-12.19,0-15.93,5.86-15.93,10.29v1.92c0,5,3.12,7.88,12.8,10.86l10.18,3.07
		c11.39,3.46,17.24,7.97,17.24,17.49v2.4c0,9.04-6.96,17.68-24.6,17.68c-16.63,0-25.2-7.98-26-19.7 M681.44,84.3l-0.1,5.12
		c-1.28,0.57-2.67,0.83-4.07,0.79c-4.56,0-7.24-1.58-10.62-6.4l-18.84-27.36l-9.82,12.2v20.87h-7.13V20.63H638v37.98l30.45-37.98
		h8.14l-24.21,30.5l20.73,29.73c1.17,2.35,3.63,3.78,6.25,3.64c0.7,0,1.4-0.07,2.08-0.2 M694.55,26.96V26.4
		c0-0.99-0.84-1.44-1.99-1.44h-1.4v3.49h1.27C693.69,28.45,694.55,27.95,694.55,26.96 M696.32,32.27c0.04,0,0.13-0.02,0.2-0.02v0.88
		c-0.23,0.07-0.47,0.11-0.71,0.11c-0.6,0.02-1.16-0.34-1.39-0.89l-1.54-2.88c-0.12,0.02-0.25,0.03-0.38,0.02h-1.3v3.65h-1.24v-9.17
		h2.67c1.94,0,3.18,0.99,3.18,2.4v0.66c0.01,1.05-0.7,1.98-1.72,2.23l1.41,2.6C695.65,32.15,695.98,32.32,696.32,32.27 M699.3,27.21
		c-0.24-3.33-3.13-5.84-6.46-5.61c-0.1,0.01-0.21,0.02-0.31,0.03c-3.39-0.29-6.39,2.2-6.74,5.59v2.4c0.13,3.36,2.96,5.97,6.32,5.84
		c0.14-0.01,0.28-0.02,0.42-0.03c3.26,0.45,6.26-1.83,6.7-5.09c0.03-0.24,0.05-0.48,0.06-0.72L699.3,27.21z M700.44,27.23v2.36
		c-0.08,3.89-3.3,6.99-7.19,6.91c-0.25-0.01-0.5-0.02-0.75-0.06c-3.96,0.39-7.48-2.51-7.86-6.47c-0.01-0.12-0.02-0.25-0.03-0.37
		v-2.36c0.4-4,3.92-6.94,7.93-6.62c3.92-0.42,7.44,2.41,7.86,6.33c0.01,0.09,0.02,0.19,0.02,0.28L700.44,27.23z"/>
	<polygon style="clip-path:url(#SVGID_00000034079175415422835230000003664168169591371927_);" points="213.1,131.03 213.1,150.76 
		237.77,150.76 237.77,159.97 213.1,159.97 213.1,188.24 200.77,188.24 200.77,121.83 241.88,121.83 241.88,131.03 	"/>
	<path style="clip-path:url(#SVGID_00000034079175415422835230000003664168169591371927_);" d="M305.13,121.83v68.31h-11.19
		l-0.7-6.34c-5.05,5.05-11.96,7.8-19.1,7.61c-15.18,0-22.77-10.05-22.77-23.32v-46.25h12.59v46.74c0,7.81,3.5,13.37,13.09,13.37
		c6.11,0.1,11.89-2.78,15.49-7.71v-52.4H305.13 M317.78,167.25h12.02c0.4,6.13,3.5,11.6,15.62,11.6c10.71,0,13.42-4.79,13.42-8.63
		v-2.11c0-5.65-3.21-7.47-13.32-10.54l-10.12-3.07c-10.71-3.16-15.21-7.95-15.21-16.39v-2.21c0-8.15,7.11-17.25,25.23-17.25
		c15.81,0,25.32,7.27,25.83,19.74h-11.81c-0.5-5.75-4-10.74-13.91-10.74c-9.91,0-12.51,4.31-12.51,8.05v1.63
		c0,3.74,2.61,6.13,11.21,8.62l10.12,2.97c11.51,3.46,17.21,8.63,17.21,18.12v2.49c0,10.16-8.71,18.7-26.13,18.7
		C328.19,188.24,318.68,180.29,317.78,167.25"/>
	
		<rect x="384.19" y="121.83" style="clip-path:url(#SVGID_00000034079175415422835230000003664168169591371927_);" width="12.65" height="66.41"/>
	<path style="clip-path:url(#SVGID_00000034079175415422835230000003664168169591371927_);" d="M421.96,145.88v15.33
		c0,10.54,5.06,17.73,15.94,17.73c10.88,0,15.94-7.19,15.94-17.73v-15.33c0-10.83-5.15-17.92-15.94-17.92
		C427.11,127.96,421.96,135.05,421.96,145.88 M466.41,145.98v15.04c0,15.62-9.4,27.22-28.51,27.22c-18.92,0-28.41-11.6-28.41-27.22
		v-15.04c0-15.81,9.4-27.31,28.41-27.31C457.01,118.66,466.41,130.16,466.41,145.98"/>
	<polygon style="clip-path:url(#SVGID_00000034079175415422835230000003664168169591371927_);" points="535.98,121.83 
		535.98,188.24 521.23,188.24 493.44,136.82 493.44,188.24 482.22,188.24 482.22,121.83 497.48,121.83 524.67,171.63 524.67,121.83 
			"/>
	<path style="clip-path:url(#SVGID_00000034079175415422835230000003664168169591371927_);" d="M573.93,169.45h11.78
		c0.7,4.99,4.86,9.58,13.28,9.58c6.93,0,13.17-3.16,13.17-10.54v-2.39c0-8.34-8.81-10.25-13.96-10.25h-6.44v-8.63h6.44
		c5.15,0,11.39-1.82,11.39-8.63v-2.3c0-6.13-4.86-8.43-11.09-8.43c-7.82,0-11.39,4.31-11.78,9.49h-11.79
		c0.49-10.15,9.1-18.69,24.16-18.69c12.87,0,22.67,6.42,22.67,16.48v3.74c0,5.95-5.54,10.64-11.48,11.98
		c5.94,0.95,14.26,6.04,14.26,14.28v4.31c0,10.74-10.5,18.79-25.05,18.79C583.14,188.24,574.92,179.61,573.93,169.45 M672.15,163.22
		c0.41-5.35-3.6-10.02-8.96-10.43c-0.47-0.04-0.94-0.04-1.41-0.01c-6.05-0.22-11.8,2.63-15.29,7.57v7.19
		c0,6.13,4.11,11.31,12.57,11.31c8.75,0,13.08-5.08,13.08-12.17L672.15,163.22z M684.62,162.84v4.11c0,10.92-8.75,21.27-25.75,21.27
		c-16.1,0-24.85-9.78-24.85-21.47v-24.81c0-10.92,6.94-23.29,25.15-23.29c14.18,0,23.64,6.42,24.14,17.92h-11.77
		c-0.1-5.65-5.03-8.72-12.17-8.72c-8.75,0-12.88,4.79-12.88,13.42v9.39c4.28-4.84,10.56-7.42,17-6.99
		C676.78,143.67,684.62,152.68,684.62,162.84L684.62,162.84z M732.3,165.06v-22.91c0-9.68-5.06-14.38-12.5-14.38
		c-8.22,0-13.2,4.7-13.2,14.38v22.9c0,9.2,4.97,13.8,13.2,13.8C727.24,178.85,732.3,174.24,732.3,165.06L732.3,165.06z
		 M694.1,164.95v-22.62c0-14.76,9.33-23.67,25.69-23.67c15.78,0,24.9,8.91,24.9,23.67v22.62c0,14.28-9.13,23.29-24.9,23.29
		C703.43,188.24,694.1,179.23,694.1,164.95 M770,121.83v9.49h-1.4v-7.27l-2.6,7.27h-1.56l-2.7-7.49v7.49h-1.3v-9.49h1.86l2.93,8.22
		l2.98-8.22H770z M751.03,121.83h7.51v1.23h-3.02v8.26h-1.42v-8.26h-3.07V121.83z"/>
</g>
</svg>
