<?xml version="1.0" encoding="utf-8"?>
<!-- Generator: Adobe Illustrator 27.0.0, SVG Export Plug-In . SVG Version: 6.00 Build 0)  -->
<svg version="1.1" id="Layer_1" xmlns="http://www.w3.org/2000/svg" xmlns:xlink="http://www.w3.org/1999/xlink" x="0px" y="0px"
	 viewBox="0 0 1250 1250" style="enable-background:new 0 0 1250 1250;" xml:space="preserve">
<style type="text/css">
	.st0{fill:#FFFFFF;}
	.st1{fill:#478CBF;}
	.st2{fill:#414042;}
</style>
<path class="st0" d="M1162.7,843.9c0,0-1.8-11-2.8-10.9l-199,19.2c-15.8,1.5-28.2,14.2-29.2,30l-5.5,78.4l-154,11l-10.5-71
	c-2.4-15.9-16-27.6-32.1-27.7H519.6c-16,0-29.8,11.9-32.1,27.7l-10.5,71l-154-11l-5.5-78.4c-1.1-15.8-13.5-28.5-29.2-30L89.2,833
	c-1-0.1-1.8,10.9-2.8,10.9L86.1,887l168.6,27.2l5.5,79.1c1.2,16.1,14,28.9,30,30.1l212.1,15.1c16.9,1.1,31.9-10.9,34.4-27.6
	l10.8-73.1h154l10.8,73.1c2.6,16.7,17.5,28.7,34.4,27.6l212.1-15.1c16.1-1.2,28.8-14,30-30.1l5.5-79.1l168.6-27.3L1162.7,843.9z"/>
<path class="st0" d="M500.8,19.3c-3-0.1-6,0.2-8.9,0.9c-58.1,12.9-116.5,31.1-172,59c-12.9,6.5-20.8,19.8-20.4,34.2
	c1,38.7,4.4,76.3,8.6,114.4c-14.4,8.6-28.9,16.5-44.8,29.3c-11.3,8.7-24,19.8-36.3,30c-28.8-18.1-57.9-36.1-88.8-51.6
	c-14.8-7.4-32.7-4.2-44,7.9c-41.9,45.1-81.8,94.5-114.7,150.5c-7,11.9-6.8,26.7,0.5,38.4c21.8,35.2,44.9,68.1,69.3,100v399.6
	c0,110.3,73.4,194.4,178.3,244.5c104.9,50.2,243.8,73.1,396.6,73.6h1c152.7-0.5,291.6-23.5,396.5-73.6
	c104.9-50.2,178.3-134.3,178.3-244.5l0.1-389.3c24.8-36.4,45.3-71.5,69.4-110.4c7.2-11.7,7.4-26.5,0.5-38.4
	c-32.9-56-72.8-105.4-114.7-150.5c-11.3-12.1-29.2-15.3-43.9-7.9c-30.8,15.5-59.9,33.5-88.8,51.6c-12.4-10.2-25-21.3-36.3-30
	c-0.1,0-0.1,0-0.1-0.1c-15.9-12.7-30.3-20.6-44.7-29.2c4.3-38,7.6-75.7,8.6-114.4c0.4-14.4-7.6-27.7-20.4-34.2
	c-55.6-28-113.9-46.1-172.1-59c-15.7-3.5-31.8,3.5-40,17.3c-18.8,31.6-34.9,65.1-50.5,98.2c-13.9-1.3-28-3.2-41.4-3.4h-1.7
	c-13.5,0.2-27.6,2.1-41.5,3.4c-15-31.8-30.5-63.9-48.5-94.3C528,28.2,515.1,19.6,500.8,19.3L500.8,19.3z"/>
<path class="st1" d="M499.9,55.5c-56,12.5-111.4,29.8-163.4,55.9c1.2,45.9,4.2,89.8,10.2,134.5c-20.2,12.9-41.4,24-60.2,39.2
	c-19.1,14.7-38.7,28.8-56,46c-35.1-23.3-71.5-44.4-109.1-63.4c-40.7,43.8-78.8,91.1-109.9,144c23.4,37.8,47.8,73.3,74.2,107h0.7
	v324.8c0.6,0,1.2,0,1.8,0.1l199.1,19.2c10.4,1,18.6,9.4,19.3,19.8l6.1,87.9l173.7,12.4l12-81.1c1.6-10.5,10.6-18.3,21.2-18.3h210
	c10.6,0,19.7,7.8,21.2,18.3l12,81.1l173.7-12.4l6.1-87.9c0.7-10.4,8.9-18.8,19.3-19.8l199-19.2c0.6,0,1.2-0.1,1.8-0.1v-25.9h0.1
	V518.7h0.7c26.4-33.7,50.8-69.1,74.2-107c-31.1-52.9-69.2-100.2-109.9-144c-37.6,19-74,40.2-109.1,63.4
	c-17.3-17.2-36.8-31.3-56-46.1c-18.8-15.1-40.1-26.2-60.2-39.2c6-44.7,9-88.6,10.2-134.5c-52-26.1-107.4-43.5-163.4-55.9
	c-22.4,37.6-42.8,78.3-60.7,118.1c-21.1-3.5-42.4-4.8-63.6-5.1h-0.8c-21.3,0.3-42.5,1.6-63.7,5.1C542.7,133.8,522.3,93.1,499.9,55.5
	L499.9,55.5z M86.1,886.3c0.1,19.2,0.3,40.3,0.3,44.5c0,189.1,239.9,279.9,537.8,281h0.7c298-1,537.8-91.9,537.8-281
	c0-4.3,0.3-25.3,0.3-44.5l-178.9,17.3L978,992c-0.8,10.6-9.2,19.1-19.9,19.9L746,1027h-1.5c-10.6,0-19.6-7.8-21.2-18.3l-12.2-82.5
	h-173l-12.2,82.5c-1.6,11.1-11.5,19.1-22.7,18.3l-212.1-15.1c-10.6-0.8-19.1-9.2-19.8-19.9l-6.2-88.4L86.1,886.3z"/>
<path class="st0" d="M462.4,650.8c-0.7,66.3-55,119.4-121.2,118.7c-65.3-0.7-118-53.4-118.7-118.7c0-66.2,53.7-119.9,120-119.9
	C408.6,530.9,462.4,584.6,462.4,650.8 M624.6,782.2c-21.3,0-38.6-15.7-38.6-35.1V636.7c0-19.4,17.3-35.1,38.6-35.1
	s38.7,15.7,38.7,35.1v110.4C663.3,766.5,645.9,782.2,624.6,782.2 M786.9,650.8c0,66.3,53.7,120,119.9,120c0,0,0,0,0.1,0
	c66.3,0,120-53.7,120-120c0,0,0,0,0,0c0-66.2-53.7-119.9-120-119.9C840.6,530.9,786.9,584.6,786.9,650.8"/>
<path class="st2" d="M353.8,578.4c-44,0-79.6,35.6-79.6,79.6s35.6,79.6,79.6,79.6c44-1,78.8-37.4,77.8-81.4
	C430.7,613.7,396.4,579.4,353.8,578.4z M895.3,578.4c-44,0-79.6,35.7-79.6,79.6c0,44,35.6,79.6,79.6,79.6c0,0,0,0,0,0
	c44-0.6,79.2-36.7,78.6-80.7C973.4,613.8,938.5,579,895.3,578.4z"/>
</svg>
