<?xml version="1.0" encoding="utf-8"?>
<!-- Generator: Adobe Illustrator 27.0.0, SVG Export Plug-In . SVG Version: 6.00 Build 0)  -->
<svg version="1.1" id="Layer_1" xmlns="http://www.w3.org/2000/svg" xmlns:xlink="http://www.w3.org/1999/xlink" x="0px" y="0px"
	 viewBox="0 0 558.7 514" style="enable-background:new 0 0 558.7 514;" xml:space="preserve">
<style type="text/css">
	.st0{fill:#EE2722;}
</style>
<path class="st0" d="M1776.2,256.2c0.1-2.4-0.9-4.7-2.7-6.3c-1.7-1.3-3.8-1.9-5.9-1.8h-10.2L1678.4,427l-20.6-95.8
	c-1.2-8.4-8-14.2-15.9-13.7h-13.3L1566.3,426l0.6-169.2c0.1-2.5-0.9-4.9-2.8-6.6c-1.8-1.4-4-2.1-6.3-2h-13.3v203.3h17v0l0.4,0
	c5,0,9.5-1.2,13.2-3.9c3.4-2.4,6.2-5.7,8.8-9.8l54.6-97.3l22.7,110.9h14.6c9.3,0,17-5.4,21.1-14.6l78.4-176.4
	C1775.7,259,1776.2,258.1,1776.2,256.2 M2491.2,248.1h-83.9c-39.2,0.1-43.3,32.3-43.5,47.5c0,16,11.6,28.7,17.4,33.8l57.1,56
	c6.8,6.7,10.1,14.5,10.1,21.8c0,12.4-9.5,22.5-24.8,22.5c0,0.1-73.9,0.1-74.6,0.3c-2.4,0.4-5,3.6-4.9,6.2h-0.2l0.2,0.1v15.3h83
	c39.2-0.1,43.3-32.3,43.5-47.4l0-0.1c0-21-19.3-37.2-19.4-37.3l-54.2-53.3c-6.8-6.7-10.9-13.5-11-20.9c0-12.4,9.5-22.5,24.7-22.5
	c0.1,0,74.9-0.1,75.5-0.3l0.2,0.5l-0.2-0.5c2.4-0.5,5-3.6,5-6.2c0,0,0,0,0-0.1L2491.2,248.1 M1892.4,268.5
	c-37.3-2.1-79.9,19.9-94.6,79.2c-14.4,58.1,12.5,86.3,49.1,91l3.8,0.2c37.7,2,77.9-20,92-79.2
	C1956.5,301.5,1929.4,272.3,1892.4,268.5 M1964.5,361.4c-13.7,57.8-55.4,103.4-121.8,98.3v0c-61.9-7.1-79.6-61.6-66.5-113.7
	c14.4-57.7,55.9-103.3,121.4-98.3v0.1C1958.5,254.8,1976.8,309.3,1964.5,361.4 M2334.7,250.1c-1.6-1.1-3.6-1.7-5.6-1.6h-9.9
	L2214.6,338l13.9-79.1c0.8-3.2-0.4-6.6-3.1-8.6c-1.8-1.4-4.1-2.1-6.4-2.1H2209l-37.8,203.3h22.4l16.5-90l82.9,90h9.9
	c2,0.1,3.9-0.5,5.6-1.6c1.7-1.3,2.7-3.4,2.6-5.5c0-3.6-3-7.3-3-7.3l-78.4-85.2l104.7-88.9c0,0,2.9-2.5,2.9-7.3
	C2337.3,253.5,2336.4,251.4,2334.7,250.1 M2124.6,279c-4.1-4-10.3-5.9-20-7.7c-3.8-0.6-7.6-0.9-11.4-1.1c-11.6-0.6-46.2-0.1-56.8,0
	l-13.4,74c8,0.1,17.1,0.2,23.5,0.3c18.1,0,35.6-0.6,48-4C2126.4,331.9,2142.2,295.7,2124.6,279 M2145.1,266.7
	c9.1,10.3,9.7,29.4,7.2,41.2c-3.1,14.4-16.8,50.6-68,55.2l43.1,73.9c0,0,2.9,4.4,2.9,7.3c0,1.9-0.8,4.3-2.6,5.5
	c-1.6,1.1-3.6,1.7-5.5,1.6h-11.4l-50.6-87.2l-40.8-0.2l-15.8,87.4h-22.4l37.8-203.4h52.2C2102.3,248.1,2129.3,248.6,2145.1,266.7
	 M641.6,291.6c-2.5,16.4,2.5,35.6,20.7,48.3l65,45.4c6.8,4.7,10.2,8,9.4,13.5c-1.2,7.6-5.2,10.6-18.7,10.6h-75.6
	c-8.1,0-12.5,4-14,13.1v28.2H717c38.8,0,58-22.9,61.9-47.2c3.6-22.9-4.1-39.2-18.8-49.7l-69.1-49c-5.5-4-6.9-6-6.5-9
	c0.6-5,5.2-7,13-7h78.9c9.6,0,15.1-9.9,16.7-19.6v-21.6H688.8C665.6,247.3,645.3,268,641.6,291.6 M1428.3,247.2h-109.5l-0.5,3.3
	c-2.6,13.8-1.4,29.8,20.4,29.8h81.1c32.1,0,44.4,23.2,36.4,66.8c-7.3,39.9-28.8,70.4-61.5,70.4h-44l20.9-114.4h-37.4
	c-5,0-8.5,3.7-9.1,6.9l-25.7,140.5h85.7c63.3,0,107.4-29.8,121.1-104.9C1516.9,287.9,1492.9,247.2,1428.3,247.2 M1168.4,417.6h-86.4
	l29.9-163.4c0.5-3.2-1.7-6.3-4.9-6.8c-0.3-0.1-0.7-0.1-1-0.1h-38l-37.1,203.3h143.1l3.7-20.3
	C1179.3,421.2,1176.3,417.6,1168.4,417.6 M1276.1,247.2h-38L1201,450.6h45.2l35.9-196.4c0.5-3.2-1.6-6.3-4.8-6.8
	C1276.9,247.3,1276.5,247.2,1276.1,247.2 M924.5,282.1c-41.3,0-62.9,24-70.6,71.2c-7.7,47.3,6,71.2,47.2,71.2s62.8-23.9,70.6-71.2
	C979.5,306.1,965.8,282.1,924.5,282.1 M1016.6,353.3c-9.5,57.7-48.5,106.1-121.2,106.1c-72.7,0-95.9-48.3-86.4-106.1
	c9.5-57.7,48.5-106,121.2-106C1002.9,247.3,1026.1,295.6,1016.6,353.3 M488.4,176.4c-43.2-7.1-120.4-9.8-146.9,30.6
	c-20.4,31.3,18.2,74.1,53.3,115.6c28.1,33.2,58.7,65,46.2,83.5c-10.2,15.2-75.6,15.1-98.2,16.3c-27.4,1.4-66.8,1.5-73.7,5.3
	c-6.2,3.3-9.6,13.6,13.5,17.8c18.6,3.4,62.9,10.1,109.7,10.1c48.8,0,100.1-8,111.2-45.8c8.9-30.3-22-62.9-49.3-95.8
	c-29.8-36.1-60-61.9-57.5-87.4c1.9-19.9,40.9-21,105.7-22.2c13.5-0.2,40.3-0.9,35.1-11.5C533,183.5,513,180.4,488.4,176.4
	 M289.2,266.5c-27.7-19-77.1-25.4-117.8-23.2c-36.2,1.9-98.5,13.4-96.1,24.9c2.2,12.4,41.6,8.5,59.7,8.5c39.7,0,102.7,2.4,112.7,28
	C269.1,359.8,123.9,458.8,93,449.3c-14-4.3,28.4-76.2,43.8-102.1c9.1-15.5,23.1-39.7,11.2-41.4c-13.3-1.8-28,21-37.5,34.2
	c-25.8,35.8-52.3,74.9-73.5,115c-6.6,12.4-28.3,49.7-20.9,54.5c7,4.5,40.2-1.9,82.4-18.6c132.7-52.5,192.5-121,208.5-177.6
	C312.7,293.3,303,276,289.2,266.5 M190.7,24.8c-2.7-8.9,41.6-20.5,90.1-22.7C329.7,0,387.6,9.7,398.4,42
	c17.7,52.9-71.9,130-150,167.9c-19.2,9.2-30.7,11.8-35.6,11.2c-4.6-0.6-5.3-4.9-3.8-7.9c2.8-5.6,15.4-16.9,32.2-29.2
	c87.9-64.2,116.4-111.3,99.8-130.3c-10.6-12.2-55.2-20.7-101.4-20.7C227.1,32.9,194.1,35.7,190.7,24.8"/>
</svg>
